<svg width="26" height="26" viewBox="0 0 26 26" fill="none" xmlns="http://www.w3.org/2000/svg">
<rect width="26" height="26" fill="#6C28BE"/>
<path d="M18 8.20996C20.989 8.93296 23 10.281 23 11.826C23 14.131 18.523 16 13 16C7.477 16 3 14.13 3 11.826C3 10.281 5.011 8.93296 8 8.21096" stroke="white" stroke-width="1.5"/>
<path d="M8 8.729C8.00027 7.47487 8.49858 6.27219 9.38538 5.38539C10.2722 4.49858 11.4749 4.00027 12.729 4H13.271C14.5251 4.00027 15.7278 4.49858 16.6146 5.38539C17.5014 6.27219 17.9997 7.47487 18 8.729C18 8.906 17.946 9.079 17.8 9.18C17.386 9.468 16.19 10 13 10C9.81 10 8.614 9.468 8.2 9.18C8.054 9.08 8 8.906 8 8.729Z" stroke="white" stroke-width="1.5"/>
<path d="M13 14C13.5523 14 14 13.5523 14 13C14 12.4477 13.5523 12 13 12C12.4477 12 12 12.4477 12 13C12 13.5523 12.4477 14 13 14Z" fill="white"/>
<path d="M8 13C8.55228 13 9 12.5523 9 12C9 11.4477 8.55228 11 8 11C7.44772 11 7 11.4477 7 12C7 12.5523 7.44772 13 8 13Z" fill="white"/>
<path d="M18 13C18.5523 13 19 12.5523 19 12C19 11.4477 18.5523 11 18 11C17.4477 11 17 11.4477 17 12C17 12.5523 17.4477 13 18 13Z" fill="white"/>
<path d="M13 22V19M19 21V18M7 21V18" stroke="white" stroke-width="1.5" stroke-linecap="round"/>
</svg>
