<svg width="24" height="24" viewBox="0 0 24 24" fill="none" xmlns="http://www.w3.org/2000/svg">
<path d="M17 7.20999C19.989 7.93299 22 9.28099 22 10.826C22 13.131 17.523 15 12 15C6.477 15 2 13.13 2 10.826C2 9.28099 4.011 7.93299 7 7.21099" stroke="white" stroke-width="1.5"/>
<path d="M7 7.729C7.00027 6.47487 7.49858 5.27219 8.38538 4.38539C9.27219 3.49858 10.4749 3.00027 11.729 3H12.271C13.5251 3.00027 14.7278 3.49858 15.6146 4.38539C16.5014 5.27219 16.9997 6.47487 17 7.729C17 7.906 16.946 8.079 16.8 8.18C16.386 8.468 15.19 9 12 9C8.81 9 7.614 8.468 7.2 8.18C7.054 8.08 7 7.906 7 7.729Z" stroke="white" stroke-width="1.5"/>
<path d="M12 13C12.5523 13 13 12.5523 13 12C13 11.4477 12.5523 11 12 11C11.4477 11 11 11.4477 11 12C11 12.5523 11.4477 13 12 13Z" fill="white"/>
<path d="M7 12C7.55228 12 8 11.5523 8 11C8 10.4477 7.55228 10 7 10C6.44772 10 6 10.4477 6 11C6 11.5523 6.44772 12 7 12Z" fill="white"/>
<path d="M17 12C17.5523 12 18 11.5523 18 11C18 10.4477 17.5523 10 17 10C16.4477 10 16 10.4477 16 11C16 11.5523 16.4477 12 17 12Z" fill="white"/>
<path d="M12 21V18M18 20V17M6 20V17" stroke="white" stroke-width="1.5" stroke-linecap="round"/>
</svg>
